<svg xmlns="http://www.w3.org/2000/svg" xmlns:xlink="http://www.w3.org/1999/xlink" width="500" zoomAndPan="magnify" viewBox="0 0 375 374.999991" height="500" preserveAspectRatio="xMidYMid meet" version="1.0"><defs><g/><clipPath id="9e7eb420bb"><path d="M 125.082031 220.089844 L 158.785156 220.089844 L 158.785156 277.695312 L 125.082031 277.695312 Z M 125.082031 220.089844 " clip-rule="nonzero"/></clipPath><clipPath id="8db0e17f7b"><path d="M 125.082031 103.027344 L 158.785156 103.027344 L 158.785156 136.730469 L 125.082031 136.730469 Z M 125.082031 103.027344 " clip-rule="nonzero"/></clipPath><clipPath id="d42ee4005e"><path d="M 141.933594 103.027344 C 132.625 103.027344 125.082031 110.570312 125.082031 119.878906 C 125.082031 129.1875 132.625 136.730469 141.933594 136.730469 C 151.242188 136.730469 158.785156 129.1875 158.785156 119.878906 C 158.785156 110.570312 151.242188 103.027344 141.933594 103.027344 Z M 141.933594 103.027344 " clip-rule="nonzero"/></clipPath><clipPath id="92c752815e"><path d="M 212.296875 206.71875 L 246 206.71875 L 246 241.828125 L 212.296875 241.828125 Z M 212.296875 206.71875 " clip-rule="nonzero"/></clipPath><clipPath id="7996f7f8b5"><path d="M 183.90625 131.050781 L 240.683594 131.050781 L 240.683594 160.824219 L 183.90625 160.824219 Z M 183.90625 131.050781 " clip-rule="nonzero"/></clipPath><clipPath id="19fdd58668"><path d="M 187.960938 143.058594 L 202.609375 143.058594 L 202.609375 157.710938 L 187.960938 157.710938 Z M 187.960938 143.058594 " clip-rule="nonzero"/></clipPath><clipPath id="5f55398a3b"><path d="M 195.285156 143.058594 C 191.238281 143.058594 187.960938 146.335938 187.960938 150.382812 C 187.960938 154.429688 191.238281 157.710938 195.285156 157.710938 C 199.332031 157.710938 202.609375 154.429688 202.609375 150.382812 C 202.609375 146.335938 199.332031 143.058594 195.285156 143.058594 Z M 195.285156 143.058594 " clip-rule="nonzero"/></clipPath><clipPath id="0399b7616f"><path d="M 221.675781 143.058594 L 236.328125 143.058594 L 236.328125 157.710938 L 221.675781 157.710938 Z M 221.675781 143.058594 " clip-rule="nonzero"/></clipPath><clipPath id="c9383e9650"><path d="M 229.003906 143.058594 C 224.957031 143.058594 221.675781 146.335938 221.675781 150.382812 C 221.675781 154.429688 224.957031 157.710938 229.003906 157.710938 C 233.050781 157.710938 236.328125 154.429688 236.328125 150.382812 C 236.328125 146.335938 233.050781 143.058594 229.003906 143.058594 Z M 229.003906 143.058594 " clip-rule="nonzero"/></clipPath></defs><rect x="-37.5" width="450" fill="#ffffff" y="-37.499999" height="449.999989" fill-opacity="1"/><rect x="-37.5" width="450" fill="#ffffff" y="-37.499999" height="449.999989" fill-opacity="1"/><g clip-path="url(#9e7eb420bb)"><path fill="#fbeb78" d="M 125.082031 220.089844 L 158.785156 220.089844 L 158.785156 277.757812 L 125.082031 277.757812 Z M 125.082031 220.089844 " fill-opacity="1" fill-rule="nonzero"/></g><g clip-path="url(#8db0e17f7b)"><g clip-path="url(#d42ee4005e)"><path fill="#df3821" d="M 125.082031 103.027344 L 158.785156 103.027344 L 158.785156 136.730469 L 125.082031 136.730469 Z M 125.082031 103.027344 " fill-opacity="1" fill-rule="nonzero"/></g></g><g clip-path="url(#92c752815e)"><path fill="#b9e185" d="M 212.296875 206.71875 L 246 206.71875 L 246 241.871094 L 212.296875 241.871094 Z M 212.296875 206.71875 " fill-opacity="1" fill-rule="nonzero"/></g><g fill="#000000" fill-opacity="1"><g transform="translate(131.790713, 186.452914)"><g><path d="M 7.046875 0 L 7.046875 -68.453125 L 19.3125 -68.453125 L 19.3125 -42.46875 L 20.234375 -42.28125 C 21.859375 -44.675781 23.847656 -46.519531 26.203125 -47.8125 C 28.566406 -49.113281 31.421875 -49.765625 34.765625 -49.765625 C 45.535156 -49.765625 50.921875 -43.65625 50.921875 -31.4375 L 50.921875 0 L 38.65625 0 L 38.65625 -29.890625 C 38.65625 -33.222656 37.988281 -35.640625 36.65625 -37.140625 C 35.332031 -38.648438 33.269531 -39.40625 30.46875 -39.40625 C 27.039062 -39.40625 24.320312 -38.257812 22.3125 -35.96875 C 20.3125 -33.6875 19.3125 -30.125 19.3125 -25.28125 L 19.3125 0 Z M 7.046875 0 "/></g></g></g><g fill="#000000" fill-opacity="1"><g transform="translate(131.790713, 246.28993)"><g><path d="M 7.046875 0 L 7.046875 -48.84375 L 18.8125 -48.84375 L 18.8125 -41.671875 L 19.75 -41.453125 C 22.789062 -46.992188 27.722656 -49.765625 34.546875 -49.765625 C 40.179688 -49.765625 44.316406 -48.226562 46.953125 -45.15625 C 49.597656 -42.09375 50.921875 -37.625 50.921875 -31.75 L 50.921875 0 L 38.65625 0 L 38.65625 -30.25 C 38.65625 -33.488281 38.003906 -35.820312 36.703125 -37.25 C 35.410156 -38.6875 33.332031 -39.40625 30.46875 -39.40625 C 26.957031 -39.40625 24.21875 -38.269531 22.25 -36 C 20.289062 -33.726562 19.3125 -30.15625 19.3125 -25.28125 L 19.3125 0 Z M 7.046875 0 "/></g></g></g><g fill="#000000" fill-opacity="1"><g transform="translate(184.006242, 246.28993)"><g><path d="M 25.328125 20.71875 C 17.265625 20.71875 11.316406 19.535156 7.484375 17.171875 C 3.648438 14.816406 1.734375 11.53125 1.734375 7.3125 C 1.734375 4.738281 2.550781 2.628906 4.1875 0.984375 C 5.820312 -0.648438 8.175781 -1.742188 11.25 -2.296875 L 11.25 -3.234375 C 9.59375 -4.234375 8.398438 -5.34375 7.671875 -6.5625 C 6.953125 -7.789062 6.59375 -9.21875 6.59375 -10.84375 C 6.59375 -14.769531 9.148438 -17.414062 14.265625 -18.78125 L 14.265625 -19.703125 C 11.628906 -21.210938 9.644531 -23.082031 8.3125 -25.3125 C 6.988281 -27.539062 6.328125 -30.234375 6.328125 -33.390625 C 6.328125 -36.640625 7.070312 -39.492188 8.5625 -41.953125 C 10.050781 -44.421875 12.234375 -46.335938 15.109375 -47.703125 C 17.992188 -49.078125 21.445312 -49.765625 25.46875 -49.765625 C 29.539062 -49.765625 32.785156 -49.054688 35.203125 -47.640625 C 36.710938 -49.828125 37.582031 -52.351562 37.8125 -55.21875 L 38.75 -55.796875 L 47.5625 -53.625 C 47.289062 -51.289062 46.609375 -49.332031 45.515625 -47.75 C 44.421875 -46.175781 42.722656 -44.769531 40.421875 -43.53125 L 40.421875 -42.546875 C 43.171875 -40.128906 44.546875 -36.75 44.546875 -32.40625 C 44.546875 -29.394531 43.789062 -26.691406 42.28125 -24.296875 C 40.78125 -21.910156 38.585938 -20.023438 35.703125 -18.640625 C 32.828125 -17.253906 29.414062 -16.5625 25.46875 -16.5625 L 23.609375 -16.609375 C 22.421875 -16.660156 21.59375 -16.6875 21.125 -16.6875 C 20 -16.6875 19.117188 -16.382812 18.484375 -15.78125 C 17.847656 -15.175781 17.53125 -14.40625 17.53125 -13.46875 C 17.53125 -12.425781 17.941406 -11.617188 18.765625 -11.046875 C 19.597656 -10.472656 20.8125 -10.15625 22.40625 -10.09375 L 33.34375 -9.703125 C 44.144531 -9.367188 49.546875 -4.71875 49.546875 4.25 C 49.546875 7.40625 48.738281 10.21875 47.125 12.6875 C 45.519531 15.15625 42.914062 17.109375 39.3125 18.546875 C 35.71875 19.992188 31.054688 20.71875 25.328125 20.71875 Z M 25.46875 -25.15625 C 27.820312 -25.15625 29.660156 -25.847656 30.984375 -27.234375 C 32.316406 -28.617188 32.984375 -30.597656 32.984375 -33.171875 C 32.984375 -35.734375 32.316406 -37.703125 30.984375 -39.078125 C 29.660156 -40.453125 27.820312 -41.140625 25.46875 -41.140625 C 23.070312 -41.140625 21.222656 -40.453125 19.921875 -39.078125 C 18.628906 -37.703125 17.984375 -35.734375 17.984375 -33.171875 C 17.984375 -30.566406 18.628906 -28.578125 19.921875 -27.203125 C 21.222656 -25.835938 23.070312 -25.15625 25.46875 -25.15625 Z M 25.328125 11.828125 C 29.515625 11.828125 32.5625 11.234375 34.46875 10.046875 C 36.375 8.867188 37.328125 7.335938 37.328125 5.453125 C 37.328125 3.910156 36.835938 2.773438 35.859375 2.046875 C 34.890625 1.328125 33.34375 0.941406 31.21875 0.890625 L 21.5625 0.4375 C 21.238281 0.4375 20.9375 0.421875 20.65625 0.390625 C 20.375 0.367188 20.101562 0.359375 19.84375 0.359375 C 17.769531 0.359375 16.191406 0.800781 15.109375 1.6875 C 14.035156 2.570312 13.5 3.796875 13.5 5.359375 C 13.5 7.421875 14.488281 9.015625 16.46875 10.140625 C 18.445312 11.265625 21.398438 11.828125 25.328125 11.828125 Z M 25.328125 11.828125 "/></g></g></g><g fill="#000000" fill-opacity="1"><g transform="translate(186.535543, 187.057572)"><g><path d="M 19.046875 0.9375 C 15.910156 0.9375 13.191406 0.359375 10.890625 -0.796875 C 8.585938 -1.953125 6.816406 -3.640625 5.578125 -5.859375 C 4.335938 -8.085938 3.71875 -10.769531 3.71875 -13.90625 C 3.71875 -16.800781 4.335938 -19.226562 5.578125 -21.1875 C 6.816406 -23.15625 8.734375 -24.765625 11.328125 -26.015625 C 13.929688 -27.265625 17.328125 -28.234375 21.515625 -28.921875 C 24.441406 -29.390625 26.664062 -29.90625 28.1875 -30.46875 C 29.707031 -31.03125 30.734375 -31.664062 31.265625 -32.375 C 31.796875 -33.082031 32.0625 -33.984375 32.0625 -35.078125 C 32.0625 -36.640625 31.515625 -37.832031 30.421875 -38.65625 C 29.328125 -39.476562 27.507812 -39.890625 24.96875 -39.890625 C 22.257812 -39.890625 19.675781 -39.285156 17.21875 -38.078125 C 14.769531 -36.867188 12.644531 -35.273438 10.84375 -33.296875 L 9.96875 -33.296875 L 4.828125 -41.046875 C 7.304688 -43.796875 10.332031 -45.9375 13.90625 -47.46875 C 17.476562 -49 21.375 -49.765625 25.59375 -49.765625 C 32.0625 -49.765625 36.738281 -48.390625 39.625 -45.640625 C 42.519531 -42.898438 43.96875 -39.007812 43.96875 -33.96875 L 43.96875 -12.75 C 43.96875 -10.5625 44.925781 -9.46875 46.84375 -9.46875 C 47.582031 -9.46875 48.304688 -9.601562 49.015625 -9.875 L 49.640625 -9.703125 L 50.53125 -1.15625 C 49.84375 -0.707031 48.894531 -0.34375 47.6875 -0.0625 C 46.476562 0.21875 45.148438 0.359375 43.703125 0.359375 C 40.785156 0.359375 38.503906 -0.203125 36.859375 -1.328125 C 35.222656 -2.453125 34.050781 -4.207031 33.34375 -6.59375 L 32.40625 -6.6875 C 30.019531 -1.601562 25.566406 0.9375 19.046875 0.9375 Z M 22.9375 -8.234375 C 25.769531 -8.234375 28.035156 -9.1875 29.734375 -11.09375 C 31.429688 -13 32.28125 -15.648438 32.28125 -19.046875 L 32.28125 -24 L 31.4375 -24.171875 C 30.695312 -23.585938 29.726562 -23.09375 28.53125 -22.6875 C 27.34375 -22.289062 25.625 -21.898438 23.375 -21.515625 C 20.71875 -21.078125 18.804688 -20.316406 17.640625 -19.234375 C 16.472656 -18.160156 15.890625 -16.632812 15.890625 -14.65625 C 15.890625 -12.5625 16.507812 -10.96875 17.75 -9.875 C 18.988281 -8.78125 20.71875 -8.234375 22.9375 -8.234375 Z M 22.9375 -8.234375 "/></g></g></g><g clip-path="url(#7996f7f8b5)"><path fill="#ffffff" d="M 183.90625 131.050781 L 240.664062 131.050781 L 240.664062 160.824219 L 183.90625 160.824219 Z M 183.90625 131.050781 " fill-opacity="1" fill-rule="nonzero"/></g><g clip-path="url(#19fdd58668)"><g clip-path="url(#5f55398a3b)"><path fill="#648dcb" d="M 187.960938 143.058594 L 202.609375 143.058594 L 202.609375 157.710938 L 187.960938 157.710938 Z M 187.960938 143.058594 " fill-opacity="1" fill-rule="nonzero"/></g></g><g clip-path="url(#0399b7616f)"><g clip-path="url(#c9383e9650)"><path fill="#648dcb" d="M 221.675781 143.058594 L 236.328125 143.058594 L 236.328125 157.710938 L 221.675781 157.710938 Z M 221.675781 143.058594 " fill-opacity="1" fill-rule="nonzero"/></g></g></svg>